%
M48
M72
T01C0.02362
T02C0.02756
T03C0.02953
T04C0.03150
T05C0.03600
T06C0.03937
T07C0.08268
%
T01
X31028Y40870
X33783Y45594
X29846Y58980
X38508Y63705
X53862Y58587
X60949Y52681
X71579Y55437
X64492Y42051
X64098Y35358
X49138Y30634
X74335Y17248
X112130Y26697
X131421Y37327
X137720Y32602
X138508Y26697
X157799Y28272
X158587Y36933
X157406Y45594
X171579Y44807
X171579Y57406
X158587Y58587
X158587Y65673
X131421Y77484
X124335Y67248
X120398Y63705
X117248Y56224
X112524Y59768
X128272Y56224
X119610Y41657
X86146Y113705
X112130Y125122
X131421Y135752
X137720Y131028
X138508Y125122
X157799Y126697
X158587Y135358
X157406Y144020
X158587Y157012
X158587Y164098
X171579Y155831
X171579Y143232
X170791Y111736
X128272Y154650
X120398Y162130
X124335Y165673
X117248Y154650
X112524Y158193
X119610Y140083
X85752Y151106
X131421Y175909
X85358Y184965
X37720Y155437
X29059Y164886
X23547Y162917
X14886Y162130
X12524Y174335
X12917Y125516
X30634Y125122
X58980Y72366
X170791Y13311
T02
X32209Y14886
X47169Y21185
X23941Y63429
X23941Y73429
T03
X15673Y68429
T04
X23547Y32209
X23547Y51894
T05
X39768Y82209
X49768Y82209
X59768Y82209
X69768Y82209
X79768Y82209
X86382Y70713
X86382Y60713
X86382Y50713
X86382Y40713
X86382Y30713
X130004Y14886
X140004Y14886
X150004Y14886
X160004Y14886
X144571Y30713
X144571Y40713
X144571Y50713
X144571Y60713
X144571Y70713
X139925Y86539
X129925Y86539
X130004Y113311
X140004Y113311
X150004Y113311
X160004Y113311
X144571Y129138
X144571Y139138
X144571Y149138
X144571Y159138
X144571Y169138
X139925Y184965
X129925Y184965
X149925Y184965
X159925Y184965
X169925Y184965
X184807Y169138
X184807Y159138
X184807Y149138
X184807Y139138
X184807Y129138
X169925Y86539
X159925Y86539
X149925Y86539
X184807Y70713
X184807Y60713
X184807Y50713
X184807Y40713
X184807Y30713
X71500Y113311
X61500Y113311
X51500Y113311
X41500Y113311
X31500Y113311
X46146Y129138
X46146Y139138
X46146Y149138
X46146Y159138
X46146Y169138
X41500Y184965
X51500Y184965
X61500Y184965
X71500Y184965
X31500Y184965
T06
X14098Y27878
X14098Y56224
T07
X17248Y17248
X17248Y84177
X17248Y115673
X17248Y182602
X115673Y182602
X115673Y115673
X115673Y84177
X115673Y17248
M30
