G75*
%MOIN*%
%OFA0B0*%
%FSLAX25Y25*%
%IPPOS*%
%LPD*%
%AMOC8*
5,1,8,0,0,1.08239X$1,22.5*
%
%ADD10C,0.01000*%
%ADD11C,0.00000*%
%ADD12C,0.08668*%
%ADD13OC8,0.07400*%
%ADD14R,0.04337X0.04731*%
%ADD15OC8,0.08000*%
%ADD16R,0.04731X0.04337*%
%ADD17R,0.05715X0.01975*%
%ADD18C,0.05550*%
%ADD19R,0.08274X0.08274*%
%ADD20C,0.06337*%
%ADD21R,0.06306X0.06306*%
%ADD22R,0.04534X0.04652*%
%ADD23OC8,0.07880*%
%ADD24R,0.04731X0.02762*%
%ADD25R,0.04652X0.04534*%
%ADD26R,0.02762X0.05912*%
%ADD27R,0.04337X0.05912*%
%ADD28C,0.03353*%
%ADD29C,0.05156*%
%ADD30OC8,0.04731*%
D10*
X0001500Y0001500D02*
X0198350Y0001500D01*
X0198350Y0198350D01*
X0001500Y0198350D01*
X0001500Y0001500D01*
D11*
X0013114Y0017248D02*
X0013116Y0017376D01*
X0013122Y0017504D01*
X0013132Y0017631D01*
X0013146Y0017759D01*
X0013163Y0017885D01*
X0013185Y0018011D01*
X0013211Y0018137D01*
X0013240Y0018261D01*
X0013273Y0018385D01*
X0013310Y0018507D01*
X0013351Y0018628D01*
X0013396Y0018748D01*
X0013444Y0018867D01*
X0013496Y0018984D01*
X0013552Y0019099D01*
X0013611Y0019213D01*
X0013673Y0019324D01*
X0013739Y0019434D01*
X0013808Y0019541D01*
X0013881Y0019647D01*
X0013957Y0019750D01*
X0014036Y0019850D01*
X0014118Y0019949D01*
X0014203Y0020044D01*
X0014291Y0020137D01*
X0014382Y0020227D01*
X0014475Y0020314D01*
X0014572Y0020399D01*
X0014670Y0020480D01*
X0014772Y0020558D01*
X0014875Y0020633D01*
X0014981Y0020705D01*
X0015089Y0020774D01*
X0015199Y0020839D01*
X0015312Y0020900D01*
X0015426Y0020959D01*
X0015541Y0021013D01*
X0015659Y0021064D01*
X0015777Y0021112D01*
X0015898Y0021155D01*
X0016019Y0021195D01*
X0016142Y0021231D01*
X0016266Y0021264D01*
X0016391Y0021292D01*
X0016516Y0021317D01*
X0016642Y0021337D01*
X0016769Y0021354D01*
X0016897Y0021367D01*
X0017024Y0021376D01*
X0017152Y0021381D01*
X0017280Y0021382D01*
X0017408Y0021379D01*
X0017536Y0021372D01*
X0017663Y0021361D01*
X0017790Y0021346D01*
X0017917Y0021328D01*
X0018043Y0021305D01*
X0018168Y0021278D01*
X0018292Y0021248D01*
X0018415Y0021214D01*
X0018538Y0021176D01*
X0018659Y0021134D01*
X0018778Y0021088D01*
X0018896Y0021039D01*
X0019013Y0020986D01*
X0019128Y0020930D01*
X0019241Y0020870D01*
X0019352Y0020807D01*
X0019461Y0020740D01*
X0019568Y0020670D01*
X0019673Y0020596D01*
X0019775Y0020520D01*
X0019875Y0020440D01*
X0019973Y0020357D01*
X0020068Y0020271D01*
X0020160Y0020182D01*
X0020249Y0020091D01*
X0020336Y0019997D01*
X0020419Y0019900D01*
X0020500Y0019800D01*
X0020577Y0019699D01*
X0020652Y0019594D01*
X0020723Y0019488D01*
X0020790Y0019379D01*
X0020855Y0019269D01*
X0020915Y0019156D01*
X0020973Y0019042D01*
X0021026Y0018926D01*
X0021076Y0018808D01*
X0021123Y0018689D01*
X0021166Y0018568D01*
X0021205Y0018446D01*
X0021240Y0018323D01*
X0021271Y0018199D01*
X0021299Y0018074D01*
X0021322Y0017948D01*
X0021342Y0017822D01*
X0021358Y0017695D01*
X0021370Y0017568D01*
X0021378Y0017440D01*
X0021382Y0017312D01*
X0021382Y0017184D01*
X0021378Y0017056D01*
X0021370Y0016928D01*
X0021358Y0016801D01*
X0021342Y0016674D01*
X0021322Y0016548D01*
X0021299Y0016422D01*
X0021271Y0016297D01*
X0021240Y0016173D01*
X0021205Y0016050D01*
X0021166Y0015928D01*
X0021123Y0015807D01*
X0021076Y0015688D01*
X0021026Y0015570D01*
X0020973Y0015454D01*
X0020915Y0015340D01*
X0020855Y0015227D01*
X0020790Y0015117D01*
X0020723Y0015008D01*
X0020652Y0014902D01*
X0020577Y0014797D01*
X0020500Y0014696D01*
X0020419Y0014596D01*
X0020336Y0014499D01*
X0020249Y0014405D01*
X0020160Y0014314D01*
X0020068Y0014225D01*
X0019973Y0014139D01*
X0019875Y0014056D01*
X0019775Y0013976D01*
X0019673Y0013900D01*
X0019568Y0013826D01*
X0019461Y0013756D01*
X0019352Y0013689D01*
X0019241Y0013626D01*
X0019128Y0013566D01*
X0019013Y0013510D01*
X0018896Y0013457D01*
X0018778Y0013408D01*
X0018659Y0013362D01*
X0018538Y0013320D01*
X0018415Y0013282D01*
X0018292Y0013248D01*
X0018168Y0013218D01*
X0018043Y0013191D01*
X0017917Y0013168D01*
X0017790Y0013150D01*
X0017663Y0013135D01*
X0017536Y0013124D01*
X0017408Y0013117D01*
X0017280Y0013114D01*
X0017152Y0013115D01*
X0017024Y0013120D01*
X0016897Y0013129D01*
X0016769Y0013142D01*
X0016642Y0013159D01*
X0016516Y0013179D01*
X0016391Y0013204D01*
X0016266Y0013232D01*
X0016142Y0013265D01*
X0016019Y0013301D01*
X0015898Y0013341D01*
X0015777Y0013384D01*
X0015659Y0013432D01*
X0015541Y0013483D01*
X0015426Y0013537D01*
X0015312Y0013596D01*
X0015199Y0013657D01*
X0015089Y0013722D01*
X0014981Y0013791D01*
X0014875Y0013863D01*
X0014772Y0013938D01*
X0014670Y0014016D01*
X0014572Y0014097D01*
X0014475Y0014182D01*
X0014382Y0014269D01*
X0014291Y0014359D01*
X0014203Y0014452D01*
X0014118Y0014547D01*
X0014036Y0014646D01*
X0013957Y0014746D01*
X0013881Y0014849D01*
X0013808Y0014955D01*
X0013739Y0015062D01*
X0013673Y0015172D01*
X0013611Y0015283D01*
X0013552Y0015397D01*
X0013496Y0015512D01*
X0013444Y0015629D01*
X0013396Y0015748D01*
X0013351Y0015868D01*
X0013310Y0015989D01*
X0013273Y0016111D01*
X0013240Y0016235D01*
X0013211Y0016359D01*
X0013185Y0016485D01*
X0013163Y0016611D01*
X0013146Y0016737D01*
X0013132Y0016865D01*
X0013122Y0016992D01*
X0013116Y0017120D01*
X0013114Y0017248D01*
X0014197Y0068429D02*
X0014199Y0068506D01*
X0014205Y0068582D01*
X0014215Y0068658D01*
X0014229Y0068733D01*
X0014246Y0068808D01*
X0014268Y0068881D01*
X0014293Y0068954D01*
X0014323Y0069025D01*
X0014355Y0069094D01*
X0014392Y0069161D01*
X0014431Y0069227D01*
X0014474Y0069290D01*
X0014521Y0069351D01*
X0014570Y0069410D01*
X0014623Y0069466D01*
X0014678Y0069519D01*
X0014736Y0069569D01*
X0014796Y0069616D01*
X0014859Y0069660D01*
X0014924Y0069701D01*
X0014991Y0069738D01*
X0015060Y0069772D01*
X0015130Y0069802D01*
X0015202Y0069828D01*
X0015276Y0069850D01*
X0015350Y0069869D01*
X0015425Y0069884D01*
X0015501Y0069895D01*
X0015577Y0069902D01*
X0015654Y0069905D01*
X0015730Y0069904D01*
X0015807Y0069899D01*
X0015883Y0069890D01*
X0015959Y0069877D01*
X0016033Y0069860D01*
X0016107Y0069840D01*
X0016180Y0069815D01*
X0016251Y0069787D01*
X0016321Y0069755D01*
X0016389Y0069720D01*
X0016455Y0069681D01*
X0016519Y0069639D01*
X0016580Y0069593D01*
X0016640Y0069544D01*
X0016696Y0069493D01*
X0016750Y0069438D01*
X0016801Y0069381D01*
X0016849Y0069321D01*
X0016894Y0069259D01*
X0016935Y0069194D01*
X0016973Y0069128D01*
X0017008Y0069060D01*
X0017038Y0068989D01*
X0017066Y0068918D01*
X0017089Y0068845D01*
X0017109Y0068771D01*
X0017125Y0068696D01*
X0017137Y0068620D01*
X0017145Y0068544D01*
X0017149Y0068467D01*
X0017149Y0068391D01*
X0017145Y0068314D01*
X0017137Y0068238D01*
X0017125Y0068162D01*
X0017109Y0068087D01*
X0017089Y0068013D01*
X0017066Y0067940D01*
X0017038Y0067869D01*
X0017008Y0067798D01*
X0016973Y0067730D01*
X0016935Y0067664D01*
X0016894Y0067599D01*
X0016849Y0067537D01*
X0016801Y0067477D01*
X0016750Y0067420D01*
X0016696Y0067365D01*
X0016640Y0067314D01*
X0016580Y0067265D01*
X0016519Y0067219D01*
X0016455Y0067177D01*
X0016389Y0067138D01*
X0016321Y0067103D01*
X0016251Y0067071D01*
X0016180Y0067043D01*
X0016107Y0067018D01*
X0016033Y0066998D01*
X0015959Y0066981D01*
X0015883Y0066968D01*
X0015807Y0066959D01*
X0015730Y0066954D01*
X0015654Y0066953D01*
X0015577Y0066956D01*
X0015501Y0066963D01*
X0015425Y0066974D01*
X0015350Y0066989D01*
X0015276Y0067008D01*
X0015202Y0067030D01*
X0015130Y0067056D01*
X0015060Y0067086D01*
X0014991Y0067120D01*
X0014924Y0067157D01*
X0014859Y0067198D01*
X0014796Y0067242D01*
X0014736Y0067289D01*
X0014678Y0067339D01*
X0014623Y0067392D01*
X0014570Y0067448D01*
X0014521Y0067507D01*
X0014474Y0067568D01*
X0014431Y0067631D01*
X0014392Y0067697D01*
X0014355Y0067764D01*
X0014323Y0067833D01*
X0014293Y0067904D01*
X0014268Y0067977D01*
X0014246Y0068050D01*
X0014229Y0068125D01*
X0014215Y0068200D01*
X0014205Y0068276D01*
X0014199Y0068352D01*
X0014197Y0068429D01*
X0013114Y0084177D02*
X0013116Y0084305D01*
X0013122Y0084433D01*
X0013132Y0084560D01*
X0013146Y0084688D01*
X0013163Y0084814D01*
X0013185Y0084940D01*
X0013211Y0085066D01*
X0013240Y0085190D01*
X0013273Y0085314D01*
X0013310Y0085436D01*
X0013351Y0085557D01*
X0013396Y0085677D01*
X0013444Y0085796D01*
X0013496Y0085913D01*
X0013552Y0086028D01*
X0013611Y0086142D01*
X0013673Y0086253D01*
X0013739Y0086363D01*
X0013808Y0086470D01*
X0013881Y0086576D01*
X0013957Y0086679D01*
X0014036Y0086779D01*
X0014118Y0086878D01*
X0014203Y0086973D01*
X0014291Y0087066D01*
X0014382Y0087156D01*
X0014475Y0087243D01*
X0014572Y0087328D01*
X0014670Y0087409D01*
X0014772Y0087487D01*
X0014875Y0087562D01*
X0014981Y0087634D01*
X0015089Y0087703D01*
X0015199Y0087768D01*
X0015312Y0087829D01*
X0015426Y0087888D01*
X0015541Y0087942D01*
X0015659Y0087993D01*
X0015777Y0088041D01*
X0015898Y0088084D01*
X0016019Y0088124D01*
X0016142Y0088160D01*
X0016266Y0088193D01*
X0016391Y0088221D01*
X0016516Y0088246D01*
X0016642Y0088266D01*
X0016769Y0088283D01*
X0016897Y0088296D01*
X0017024Y0088305D01*
X0017152Y0088310D01*
X0017280Y0088311D01*
X0017408Y0088308D01*
X0017536Y0088301D01*
X0017663Y0088290D01*
X0017790Y0088275D01*
X0017917Y0088257D01*
X0018043Y0088234D01*
X0018168Y0088207D01*
X0018292Y0088177D01*
X0018415Y0088143D01*
X0018538Y0088105D01*
X0018659Y0088063D01*
X0018778Y0088017D01*
X0018896Y0087968D01*
X0019013Y0087915D01*
X0019128Y0087859D01*
X0019241Y0087799D01*
X0019352Y0087736D01*
X0019461Y0087669D01*
X0019568Y0087599D01*
X0019673Y0087525D01*
X0019775Y0087449D01*
X0019875Y0087369D01*
X0019973Y0087286D01*
X0020068Y0087200D01*
X0020160Y0087111D01*
X0020249Y0087020D01*
X0020336Y0086926D01*
X0020419Y0086829D01*
X0020500Y0086729D01*
X0020577Y0086628D01*
X0020652Y0086523D01*
X0020723Y0086417D01*
X0020790Y0086308D01*
X0020855Y0086198D01*
X0020915Y0086085D01*
X0020973Y0085971D01*
X0021026Y0085855D01*
X0021076Y0085737D01*
X0021123Y0085618D01*
X0021166Y0085497D01*
X0021205Y0085375D01*
X0021240Y0085252D01*
X0021271Y0085128D01*
X0021299Y0085003D01*
X0021322Y0084877D01*
X0021342Y0084751D01*
X0021358Y0084624D01*
X0021370Y0084497D01*
X0021378Y0084369D01*
X0021382Y0084241D01*
X0021382Y0084113D01*
X0021378Y0083985D01*
X0021370Y0083857D01*
X0021358Y0083730D01*
X0021342Y0083603D01*
X0021322Y0083477D01*
X0021299Y0083351D01*
X0021271Y0083226D01*
X0021240Y0083102D01*
X0021205Y0082979D01*
X0021166Y0082857D01*
X0021123Y0082736D01*
X0021076Y0082617D01*
X0021026Y0082499D01*
X0020973Y0082383D01*
X0020915Y0082269D01*
X0020855Y0082156D01*
X0020790Y0082046D01*
X0020723Y0081937D01*
X0020652Y0081831D01*
X0020577Y0081726D01*
X0020500Y0081625D01*
X0020419Y0081525D01*
X0020336Y0081428D01*
X0020249Y0081334D01*
X0020160Y0081243D01*
X0020068Y0081154D01*
X0019973Y0081068D01*
X0019875Y0080985D01*
X0019775Y0080905D01*
X0019673Y0080829D01*
X0019568Y0080755D01*
X0019461Y0080685D01*
X0019352Y0080618D01*
X0019241Y0080555D01*
X0019128Y0080495D01*
X0019013Y0080439D01*
X0018896Y0080386D01*
X0018778Y0080337D01*
X0018659Y0080291D01*
X0018538Y0080249D01*
X0018415Y0080211D01*
X0018292Y0080177D01*
X0018168Y0080147D01*
X0018043Y0080120D01*
X0017917Y0080097D01*
X0017790Y0080079D01*
X0017663Y0080064D01*
X0017536Y0080053D01*
X0017408Y0080046D01*
X0017280Y0080043D01*
X0017152Y0080044D01*
X0017024Y0080049D01*
X0016897Y0080058D01*
X0016769Y0080071D01*
X0016642Y0080088D01*
X0016516Y0080108D01*
X0016391Y0080133D01*
X0016266Y0080161D01*
X0016142Y0080194D01*
X0016019Y0080230D01*
X0015898Y0080270D01*
X0015777Y0080313D01*
X0015659Y0080361D01*
X0015541Y0080412D01*
X0015426Y0080466D01*
X0015312Y0080525D01*
X0015199Y0080586D01*
X0015089Y0080651D01*
X0014981Y0080720D01*
X0014875Y0080792D01*
X0014772Y0080867D01*
X0014670Y0080945D01*
X0014572Y0081026D01*
X0014475Y0081111D01*
X0014382Y0081198D01*
X0014291Y0081288D01*
X0014203Y0081381D01*
X0014118Y0081476D01*
X0014036Y0081575D01*
X0013957Y0081675D01*
X0013881Y0081778D01*
X0013808Y0081884D01*
X0013739Y0081991D01*
X0013673Y0082101D01*
X0013611Y0082212D01*
X0013552Y0082326D01*
X0013496Y0082441D01*
X0013444Y0082558D01*
X0013396Y0082677D01*
X0013351Y0082797D01*
X0013310Y0082918D01*
X0013273Y0083040D01*
X0013240Y0083164D01*
X0013211Y0083288D01*
X0013185Y0083414D01*
X0013163Y0083540D01*
X0013146Y0083666D01*
X0013132Y0083794D01*
X0013122Y0083921D01*
X0013116Y0084049D01*
X0013114Y0084177D01*
X0013114Y0115673D02*
X0013116Y0115801D01*
X0013122Y0115929D01*
X0013132Y0116056D01*
X0013146Y0116184D01*
X0013163Y0116310D01*
X0013185Y0116436D01*
X0013211Y0116562D01*
X0013240Y0116686D01*
X0013273Y0116810D01*
X0013310Y0116932D01*
X0013351Y0117053D01*
X0013396Y0117173D01*
X0013444Y0117292D01*
X0013496Y0117409D01*
X0013552Y0117524D01*
X0013611Y0117638D01*
X0013673Y0117749D01*
X0013739Y0117859D01*
X0013808Y0117966D01*
X0013881Y0118072D01*
X0013957Y0118175D01*
X0014036Y0118275D01*
X0014118Y0118374D01*
X0014203Y0118469D01*
X0014291Y0118562D01*
X0014382Y0118652D01*
X0014475Y0118739D01*
X0014572Y0118824D01*
X0014670Y0118905D01*
X0014772Y0118983D01*
X0014875Y0119058D01*
X0014981Y0119130D01*
X0015089Y0119199D01*
X0015199Y0119264D01*
X0015312Y0119325D01*
X0015426Y0119384D01*
X0015541Y0119438D01*
X0015659Y0119489D01*
X0015777Y0119537D01*
X0015898Y0119580D01*
X0016019Y0119620D01*
X0016142Y0119656D01*
X0016266Y0119689D01*
X0016391Y0119717D01*
X0016516Y0119742D01*
X0016642Y0119762D01*
X0016769Y0119779D01*
X0016897Y0119792D01*
X0017024Y0119801D01*
X0017152Y0119806D01*
X0017280Y0119807D01*
X0017408Y0119804D01*
X0017536Y0119797D01*
X0017663Y0119786D01*
X0017790Y0119771D01*
X0017917Y0119753D01*
X0018043Y0119730D01*
X0018168Y0119703D01*
X0018292Y0119673D01*
X0018415Y0119639D01*
X0018538Y0119601D01*
X0018659Y0119559D01*
X0018778Y0119513D01*
X0018896Y0119464D01*
X0019013Y0119411D01*
X0019128Y0119355D01*
X0019241Y0119295D01*
X0019352Y0119232D01*
X0019461Y0119165D01*
X0019568Y0119095D01*
X0019673Y0119021D01*
X0019775Y0118945D01*
X0019875Y0118865D01*
X0019973Y0118782D01*
X0020068Y0118696D01*
X0020160Y0118607D01*
X0020249Y0118516D01*
X0020336Y0118422D01*
X0020419Y0118325D01*
X0020500Y0118225D01*
X0020577Y0118124D01*
X0020652Y0118019D01*
X0020723Y0117913D01*
X0020790Y0117804D01*
X0020855Y0117694D01*
X0020915Y0117581D01*
X0020973Y0117467D01*
X0021026Y0117351D01*
X0021076Y0117233D01*
X0021123Y0117114D01*
X0021166Y0116993D01*
X0021205Y0116871D01*
X0021240Y0116748D01*
X0021271Y0116624D01*
X0021299Y0116499D01*
X0021322Y0116373D01*
X0021342Y0116247D01*
X0021358Y0116120D01*
X0021370Y0115993D01*
X0021378Y0115865D01*
X0021382Y0115737D01*
X0021382Y0115609D01*
X0021378Y0115481D01*
X0021370Y0115353D01*
X0021358Y0115226D01*
X0021342Y0115099D01*
X0021322Y0114973D01*
X0021299Y0114847D01*
X0021271Y0114722D01*
X0021240Y0114598D01*
X0021205Y0114475D01*
X0021166Y0114353D01*
X0021123Y0114232D01*
X0021076Y0114113D01*
X0021026Y0113995D01*
X0020973Y0113879D01*
X0020915Y0113765D01*
X0020855Y0113652D01*
X0020790Y0113542D01*
X0020723Y0113433D01*
X0020652Y0113327D01*
X0020577Y0113222D01*
X0020500Y0113121D01*
X0020419Y0113021D01*
X0020336Y0112924D01*
X0020249Y0112830D01*
X0020160Y0112739D01*
X0020068Y0112650D01*
X0019973Y0112564D01*
X0019875Y0112481D01*
X0019775Y0112401D01*
X0019673Y0112325D01*
X0019568Y0112251D01*
X0019461Y0112181D01*
X0019352Y0112114D01*
X0019241Y0112051D01*
X0019128Y0111991D01*
X0019013Y0111935D01*
X0018896Y0111882D01*
X0018778Y0111833D01*
X0018659Y0111787D01*
X0018538Y0111745D01*
X0018415Y0111707D01*
X0018292Y0111673D01*
X0018168Y0111643D01*
X0018043Y0111616D01*
X0017917Y0111593D01*
X0017790Y0111575D01*
X0017663Y0111560D01*
X0017536Y0111549D01*
X0017408Y0111542D01*
X0017280Y0111539D01*
X0017152Y0111540D01*
X0017024Y0111545D01*
X0016897Y0111554D01*
X0016769Y0111567D01*
X0016642Y0111584D01*
X0016516Y0111604D01*
X0016391Y0111629D01*
X0016266Y0111657D01*
X0016142Y0111690D01*
X0016019Y0111726D01*
X0015898Y0111766D01*
X0015777Y0111809D01*
X0015659Y0111857D01*
X0015541Y0111908D01*
X0015426Y0111962D01*
X0015312Y0112021D01*
X0015199Y0112082D01*
X0015089Y0112147D01*
X0014981Y0112216D01*
X0014875Y0112288D01*
X0014772Y0112363D01*
X0014670Y0112441D01*
X0014572Y0112522D01*
X0014475Y0112607D01*
X0014382Y0112694D01*
X0014291Y0112784D01*
X0014203Y0112877D01*
X0014118Y0112972D01*
X0014036Y0113071D01*
X0013957Y0113171D01*
X0013881Y0113274D01*
X0013808Y0113380D01*
X0013739Y0113487D01*
X0013673Y0113597D01*
X0013611Y0113708D01*
X0013552Y0113822D01*
X0013496Y0113937D01*
X0013444Y0114054D01*
X0013396Y0114173D01*
X0013351Y0114293D01*
X0013310Y0114414D01*
X0013273Y0114536D01*
X0013240Y0114660D01*
X0013211Y0114784D01*
X0013185Y0114910D01*
X0013163Y0115036D01*
X0013146Y0115162D01*
X0013132Y0115290D01*
X0013122Y0115417D01*
X0013116Y0115545D01*
X0013114Y0115673D01*
X0013114Y0182602D02*
X0013116Y0182730D01*
X0013122Y0182858D01*
X0013132Y0182985D01*
X0013146Y0183113D01*
X0013163Y0183239D01*
X0013185Y0183365D01*
X0013211Y0183491D01*
X0013240Y0183615D01*
X0013273Y0183739D01*
X0013310Y0183861D01*
X0013351Y0183982D01*
X0013396Y0184102D01*
X0013444Y0184221D01*
X0013496Y0184338D01*
X0013552Y0184453D01*
X0013611Y0184567D01*
X0013673Y0184678D01*
X0013739Y0184788D01*
X0013808Y0184895D01*
X0013881Y0185001D01*
X0013957Y0185104D01*
X0014036Y0185204D01*
X0014118Y0185303D01*
X0014203Y0185398D01*
X0014291Y0185491D01*
X0014382Y0185581D01*
X0014475Y0185668D01*
X0014572Y0185753D01*
X0014670Y0185834D01*
X0014772Y0185912D01*
X0014875Y0185987D01*
X0014981Y0186059D01*
X0015089Y0186128D01*
X0015199Y0186193D01*
X0015312Y0186254D01*
X0015426Y0186313D01*
X0015541Y0186367D01*
X0015659Y0186418D01*
X0015777Y0186466D01*
X0015898Y0186509D01*
X0016019Y0186549D01*
X0016142Y0186585D01*
X0016266Y0186618D01*
X0016391Y0186646D01*
X0016516Y0186671D01*
X0016642Y0186691D01*
X0016769Y0186708D01*
X0016897Y0186721D01*
X0017024Y0186730D01*
X0017152Y0186735D01*
X0017280Y0186736D01*
X0017408Y0186733D01*
X0017536Y0186726D01*
X0017663Y0186715D01*
X0017790Y0186700D01*
X0017917Y0186682D01*
X0018043Y0186659D01*
X0018168Y0186632D01*
X0018292Y0186602D01*
X0018415Y0186568D01*
X0018538Y0186530D01*
X0018659Y0186488D01*
X0018778Y0186442D01*
X0018896Y0186393D01*
X0019013Y0186340D01*
X0019128Y0186284D01*
X0019241Y0186224D01*
X0019352Y0186161D01*
X0019461Y0186094D01*
X0019568Y0186024D01*
X0019673Y0185950D01*
X0019775Y0185874D01*
X0019875Y0185794D01*
X0019973Y0185711D01*
X0020068Y0185625D01*
X0020160Y0185536D01*
X0020249Y0185445D01*
X0020336Y0185351D01*
X0020419Y0185254D01*
X0020500Y0185154D01*
X0020577Y0185053D01*
X0020652Y0184948D01*
X0020723Y0184842D01*
X0020790Y0184733D01*
X0020855Y0184623D01*
X0020915Y0184510D01*
X0020973Y0184396D01*
X0021026Y0184280D01*
X0021076Y0184162D01*
X0021123Y0184043D01*
X0021166Y0183922D01*
X0021205Y0183800D01*
X0021240Y0183677D01*
X0021271Y0183553D01*
X0021299Y0183428D01*
X0021322Y0183302D01*
X0021342Y0183176D01*
X0021358Y0183049D01*
X0021370Y0182922D01*
X0021378Y0182794D01*
X0021382Y0182666D01*
X0021382Y0182538D01*
X0021378Y0182410D01*
X0021370Y0182282D01*
X0021358Y0182155D01*
X0021342Y0182028D01*
X0021322Y0181902D01*
X0021299Y0181776D01*
X0021271Y0181651D01*
X0021240Y0181527D01*
X0021205Y0181404D01*
X0021166Y0181282D01*
X0021123Y0181161D01*
X0021076Y0181042D01*
X0021026Y0180924D01*
X0020973Y0180808D01*
X0020915Y0180694D01*
X0020855Y0180581D01*
X0020790Y0180471D01*
X0020723Y0180362D01*
X0020652Y0180256D01*
X0020577Y0180151D01*
X0020500Y0180050D01*
X0020419Y0179950D01*
X0020336Y0179853D01*
X0020249Y0179759D01*
X0020160Y0179668D01*
X0020068Y0179579D01*
X0019973Y0179493D01*
X0019875Y0179410D01*
X0019775Y0179330D01*
X0019673Y0179254D01*
X0019568Y0179180D01*
X0019461Y0179110D01*
X0019352Y0179043D01*
X0019241Y0178980D01*
X0019128Y0178920D01*
X0019013Y0178864D01*
X0018896Y0178811D01*
X0018778Y0178762D01*
X0018659Y0178716D01*
X0018538Y0178674D01*
X0018415Y0178636D01*
X0018292Y0178602D01*
X0018168Y0178572D01*
X0018043Y0178545D01*
X0017917Y0178522D01*
X0017790Y0178504D01*
X0017663Y0178489D01*
X0017536Y0178478D01*
X0017408Y0178471D01*
X0017280Y0178468D01*
X0017152Y0178469D01*
X0017024Y0178474D01*
X0016897Y0178483D01*
X0016769Y0178496D01*
X0016642Y0178513D01*
X0016516Y0178533D01*
X0016391Y0178558D01*
X0016266Y0178586D01*
X0016142Y0178619D01*
X0016019Y0178655D01*
X0015898Y0178695D01*
X0015777Y0178738D01*
X0015659Y0178786D01*
X0015541Y0178837D01*
X0015426Y0178891D01*
X0015312Y0178950D01*
X0015199Y0179011D01*
X0015089Y0179076D01*
X0014981Y0179145D01*
X0014875Y0179217D01*
X0014772Y0179292D01*
X0014670Y0179370D01*
X0014572Y0179451D01*
X0014475Y0179536D01*
X0014382Y0179623D01*
X0014291Y0179713D01*
X0014203Y0179806D01*
X0014118Y0179901D01*
X0014036Y0180000D01*
X0013957Y0180100D01*
X0013881Y0180203D01*
X0013808Y0180309D01*
X0013739Y0180416D01*
X0013673Y0180526D01*
X0013611Y0180637D01*
X0013552Y0180751D01*
X0013496Y0180866D01*
X0013444Y0180983D01*
X0013396Y0181102D01*
X0013351Y0181222D01*
X0013310Y0181343D01*
X0013273Y0181465D01*
X0013240Y0181589D01*
X0013211Y0181713D01*
X0013185Y0181839D01*
X0013163Y0181965D01*
X0013146Y0182091D01*
X0013132Y0182219D01*
X0013122Y0182346D01*
X0013116Y0182474D01*
X0013114Y0182602D01*
X0111539Y0182602D02*
X0111541Y0182730D01*
X0111547Y0182858D01*
X0111557Y0182985D01*
X0111571Y0183113D01*
X0111588Y0183239D01*
X0111610Y0183365D01*
X0111636Y0183491D01*
X0111665Y0183615D01*
X0111698Y0183739D01*
X0111735Y0183861D01*
X0111776Y0183982D01*
X0111821Y0184102D01*
X0111869Y0184221D01*
X0111921Y0184338D01*
X0111977Y0184453D01*
X0112036Y0184567D01*
X0112098Y0184678D01*
X0112164Y0184788D01*
X0112233Y0184895D01*
X0112306Y0185001D01*
X0112382Y0185104D01*
X0112461Y0185204D01*
X0112543Y0185303D01*
X0112628Y0185398D01*
X0112716Y0185491D01*
X0112807Y0185581D01*
X0112900Y0185668D01*
X0112997Y0185753D01*
X0113095Y0185834D01*
X0113197Y0185912D01*
X0113300Y0185987D01*
X0113406Y0186059D01*
X0113514Y0186128D01*
X0113624Y0186193D01*
X0113737Y0186254D01*
X0113851Y0186313D01*
X0113966Y0186367D01*
X0114084Y0186418D01*
X0114202Y0186466D01*
X0114323Y0186509D01*
X0114444Y0186549D01*
X0114567Y0186585D01*
X0114691Y0186618D01*
X0114816Y0186646D01*
X0114941Y0186671D01*
X0115067Y0186691D01*
X0115194Y0186708D01*
X0115322Y0186721D01*
X0115449Y0186730D01*
X0115577Y0186735D01*
X0115705Y0186736D01*
X0115833Y0186733D01*
X0115961Y0186726D01*
X0116088Y0186715D01*
X0116215Y0186700D01*
X0116342Y0186682D01*
X0116468Y0186659D01*
X0116593Y0186632D01*
X0116717Y0186602D01*
X0116840Y0186568D01*
X0116963Y0186530D01*
X0117084Y0186488D01*
X0117203Y0186442D01*
X0117321Y0186393D01*
X0117438Y0186340D01*
X0117553Y0186284D01*
X0117666Y0186224D01*
X0117777Y0186161D01*
X0117886Y0186094D01*
X0117993Y0186024D01*
X0118098Y0185950D01*
X0118200Y0185874D01*
X0118300Y0185794D01*
X0118398Y0185711D01*
X0118493Y0185625D01*
X0118585Y0185536D01*
X0118674Y0185445D01*
X0118761Y0185351D01*
X0118844Y0185254D01*
X0118925Y0185154D01*
X0119002Y0185053D01*
X0119077Y0184948D01*
X0119148Y0184842D01*
X0119215Y0184733D01*
X0119280Y0184623D01*
X0119340Y0184510D01*
X0119398Y0184396D01*
X0119451Y0184280D01*
X0119501Y0184162D01*
X0119548Y0184043D01*
X0119591Y0183922D01*
X0119630Y0183800D01*
X0119665Y0183677D01*
X0119696Y0183553D01*
X0119724Y0183428D01*
X0119747Y0183302D01*
X0119767Y0183176D01*
X0119783Y0183049D01*
X0119795Y0182922D01*
X0119803Y0182794D01*
X0119807Y0182666D01*
X0119807Y0182538D01*
X0119803Y0182410D01*
X0119795Y0182282D01*
X0119783Y0182155D01*
X0119767Y0182028D01*
X0119747Y0181902D01*
X0119724Y0181776D01*
X0119696Y0181651D01*
X0119665Y0181527D01*
X0119630Y0181404D01*
X0119591Y0181282D01*
X0119548Y0181161D01*
X0119501Y0181042D01*
X0119451Y0180924D01*
X0119398Y0180808D01*
X0119340Y0180694D01*
X0119280Y0180581D01*
X0119215Y0180471D01*
X0119148Y0180362D01*
X0119077Y0180256D01*
X0119002Y0180151D01*
X0118925Y0180050D01*
X0118844Y0179950D01*
X0118761Y0179853D01*
X0118674Y0179759D01*
X0118585Y0179668D01*
X0118493Y0179579D01*
X0118398Y0179493D01*
X0118300Y0179410D01*
X0118200Y0179330D01*
X0118098Y0179254D01*
X0117993Y0179180D01*
X0117886Y0179110D01*
X0117777Y0179043D01*
X0117666Y0178980D01*
X0117553Y0178920D01*
X0117438Y0178864D01*
X0117321Y0178811D01*
X0117203Y0178762D01*
X0117084Y0178716D01*
X0116963Y0178674D01*
X0116840Y0178636D01*
X0116717Y0178602D01*
X0116593Y0178572D01*
X0116468Y0178545D01*
X0116342Y0178522D01*
X0116215Y0178504D01*
X0116088Y0178489D01*
X0115961Y0178478D01*
X0115833Y0178471D01*
X0115705Y0178468D01*
X0115577Y0178469D01*
X0115449Y0178474D01*
X0115322Y0178483D01*
X0115194Y0178496D01*
X0115067Y0178513D01*
X0114941Y0178533D01*
X0114816Y0178558D01*
X0114691Y0178586D01*
X0114567Y0178619D01*
X0114444Y0178655D01*
X0114323Y0178695D01*
X0114202Y0178738D01*
X0114084Y0178786D01*
X0113966Y0178837D01*
X0113851Y0178891D01*
X0113737Y0178950D01*
X0113624Y0179011D01*
X0113514Y0179076D01*
X0113406Y0179145D01*
X0113300Y0179217D01*
X0113197Y0179292D01*
X0113095Y0179370D01*
X0112997Y0179451D01*
X0112900Y0179536D01*
X0112807Y0179623D01*
X0112716Y0179713D01*
X0112628Y0179806D01*
X0112543Y0179901D01*
X0112461Y0180000D01*
X0112382Y0180100D01*
X0112306Y0180203D01*
X0112233Y0180309D01*
X0112164Y0180416D01*
X0112098Y0180526D01*
X0112036Y0180637D01*
X0111977Y0180751D01*
X0111921Y0180866D01*
X0111869Y0180983D01*
X0111821Y0181102D01*
X0111776Y0181222D01*
X0111735Y0181343D01*
X0111698Y0181465D01*
X0111665Y0181589D01*
X0111636Y0181713D01*
X0111610Y0181839D01*
X0111588Y0181965D01*
X0111571Y0182091D01*
X0111557Y0182219D01*
X0111547Y0182346D01*
X0111541Y0182474D01*
X0111539Y0182602D01*
X0111539Y0115673D02*
X0111541Y0115801D01*
X0111547Y0115929D01*
X0111557Y0116056D01*
X0111571Y0116184D01*
X0111588Y0116310D01*
X0111610Y0116436D01*
X0111636Y0116562D01*
X0111665Y0116686D01*
X0111698Y0116810D01*
X0111735Y0116932D01*
X0111776Y0117053D01*
X0111821Y0117173D01*
X0111869Y0117292D01*
X0111921Y0117409D01*
X0111977Y0117524D01*
X0112036Y0117638D01*
X0112098Y0117749D01*
X0112164Y0117859D01*
X0112233Y0117966D01*
X0112306Y0118072D01*
X0112382Y0118175D01*
X0112461Y0118275D01*
X0112543Y0118374D01*
X0112628Y0118469D01*
X0112716Y0118562D01*
X0112807Y0118652D01*
X0112900Y0118739D01*
X0112997Y0118824D01*
X0113095Y0118905D01*
X0113197Y0118983D01*
X0113300Y0119058D01*
X0113406Y0119130D01*
X0113514Y0119199D01*
X0113624Y0119264D01*
X0113737Y0119325D01*
X0113851Y0119384D01*
X0113966Y0119438D01*
X0114084Y0119489D01*
X0114202Y0119537D01*
X0114323Y0119580D01*
X0114444Y0119620D01*
X0114567Y0119656D01*
X0114691Y0119689D01*
X0114816Y0119717D01*
X0114941Y0119742D01*
X0115067Y0119762D01*
X0115194Y0119779D01*
X0115322Y0119792D01*
X0115449Y0119801D01*
X0115577Y0119806D01*
X0115705Y0119807D01*
X0115833Y0119804D01*
X0115961Y0119797D01*
X0116088Y0119786D01*
X0116215Y0119771D01*
X0116342Y0119753D01*
X0116468Y0119730D01*
X0116593Y0119703D01*
X0116717Y0119673D01*
X0116840Y0119639D01*
X0116963Y0119601D01*
X0117084Y0119559D01*
X0117203Y0119513D01*
X0117321Y0119464D01*
X0117438Y0119411D01*
X0117553Y0119355D01*
X0117666Y0119295D01*
X0117777Y0119232D01*
X0117886Y0119165D01*
X0117993Y0119095D01*
X0118098Y0119021D01*
X0118200Y0118945D01*
X0118300Y0118865D01*
X0118398Y0118782D01*
X0118493Y0118696D01*
X0118585Y0118607D01*
X0118674Y0118516D01*
X0118761Y0118422D01*
X0118844Y0118325D01*
X0118925Y0118225D01*
X0119002Y0118124D01*
X0119077Y0118019D01*
X0119148Y0117913D01*
X0119215Y0117804D01*
X0119280Y0117694D01*
X0119340Y0117581D01*
X0119398Y0117467D01*
X0119451Y0117351D01*
X0119501Y0117233D01*
X0119548Y0117114D01*
X0119591Y0116993D01*
X0119630Y0116871D01*
X0119665Y0116748D01*
X0119696Y0116624D01*
X0119724Y0116499D01*
X0119747Y0116373D01*
X0119767Y0116247D01*
X0119783Y0116120D01*
X0119795Y0115993D01*
X0119803Y0115865D01*
X0119807Y0115737D01*
X0119807Y0115609D01*
X0119803Y0115481D01*
X0119795Y0115353D01*
X0119783Y0115226D01*
X0119767Y0115099D01*
X0119747Y0114973D01*
X0119724Y0114847D01*
X0119696Y0114722D01*
X0119665Y0114598D01*
X0119630Y0114475D01*
X0119591Y0114353D01*
X0119548Y0114232D01*
X0119501Y0114113D01*
X0119451Y0113995D01*
X0119398Y0113879D01*
X0119340Y0113765D01*
X0119280Y0113652D01*
X0119215Y0113542D01*
X0119148Y0113433D01*
X0119077Y0113327D01*
X0119002Y0113222D01*
X0118925Y0113121D01*
X0118844Y0113021D01*
X0118761Y0112924D01*
X0118674Y0112830D01*
X0118585Y0112739D01*
X0118493Y0112650D01*
X0118398Y0112564D01*
X0118300Y0112481D01*
X0118200Y0112401D01*
X0118098Y0112325D01*
X0117993Y0112251D01*
X0117886Y0112181D01*
X0117777Y0112114D01*
X0117666Y0112051D01*
X0117553Y0111991D01*
X0117438Y0111935D01*
X0117321Y0111882D01*
X0117203Y0111833D01*
X0117084Y0111787D01*
X0116963Y0111745D01*
X0116840Y0111707D01*
X0116717Y0111673D01*
X0116593Y0111643D01*
X0116468Y0111616D01*
X0116342Y0111593D01*
X0116215Y0111575D01*
X0116088Y0111560D01*
X0115961Y0111549D01*
X0115833Y0111542D01*
X0115705Y0111539D01*
X0115577Y0111540D01*
X0115449Y0111545D01*
X0115322Y0111554D01*
X0115194Y0111567D01*
X0115067Y0111584D01*
X0114941Y0111604D01*
X0114816Y0111629D01*
X0114691Y0111657D01*
X0114567Y0111690D01*
X0114444Y0111726D01*
X0114323Y0111766D01*
X0114202Y0111809D01*
X0114084Y0111857D01*
X0113966Y0111908D01*
X0113851Y0111962D01*
X0113737Y0112021D01*
X0113624Y0112082D01*
X0113514Y0112147D01*
X0113406Y0112216D01*
X0113300Y0112288D01*
X0113197Y0112363D01*
X0113095Y0112441D01*
X0112997Y0112522D01*
X0112900Y0112607D01*
X0112807Y0112694D01*
X0112716Y0112784D01*
X0112628Y0112877D01*
X0112543Y0112972D01*
X0112461Y0113071D01*
X0112382Y0113171D01*
X0112306Y0113274D01*
X0112233Y0113380D01*
X0112164Y0113487D01*
X0112098Y0113597D01*
X0112036Y0113708D01*
X0111977Y0113822D01*
X0111921Y0113937D01*
X0111869Y0114054D01*
X0111821Y0114173D01*
X0111776Y0114293D01*
X0111735Y0114414D01*
X0111698Y0114536D01*
X0111665Y0114660D01*
X0111636Y0114784D01*
X0111610Y0114910D01*
X0111588Y0115036D01*
X0111571Y0115162D01*
X0111557Y0115290D01*
X0111547Y0115417D01*
X0111541Y0115545D01*
X0111539Y0115673D01*
X0111539Y0084177D02*
X0111541Y0084305D01*
X0111547Y0084433D01*
X0111557Y0084560D01*
X0111571Y0084688D01*
X0111588Y0084814D01*
X0111610Y0084940D01*
X0111636Y0085066D01*
X0111665Y0085190D01*
X0111698Y0085314D01*
X0111735Y0085436D01*
X0111776Y0085557D01*
X0111821Y0085677D01*
X0111869Y0085796D01*
X0111921Y0085913D01*
X0111977Y0086028D01*
X0112036Y0086142D01*
X0112098Y0086253D01*
X0112164Y0086363D01*
X0112233Y0086470D01*
X0112306Y0086576D01*
X0112382Y0086679D01*
X0112461Y0086779D01*
X0112543Y0086878D01*
X0112628Y0086973D01*
X0112716Y0087066D01*
X0112807Y0087156D01*
X0112900Y0087243D01*
X0112997Y0087328D01*
X0113095Y0087409D01*
X0113197Y0087487D01*
X0113300Y0087562D01*
X0113406Y0087634D01*
X0113514Y0087703D01*
X0113624Y0087768D01*
X0113737Y0087829D01*
X0113851Y0087888D01*
X0113966Y0087942D01*
X0114084Y0087993D01*
X0114202Y0088041D01*
X0114323Y0088084D01*
X0114444Y0088124D01*
X0114567Y0088160D01*
X0114691Y0088193D01*
X0114816Y0088221D01*
X0114941Y0088246D01*
X0115067Y0088266D01*
X0115194Y0088283D01*
X0115322Y0088296D01*
X0115449Y0088305D01*
X0115577Y0088310D01*
X0115705Y0088311D01*
X0115833Y0088308D01*
X0115961Y0088301D01*
X0116088Y0088290D01*
X0116215Y0088275D01*
X0116342Y0088257D01*
X0116468Y0088234D01*
X0116593Y0088207D01*
X0116717Y0088177D01*
X0116840Y0088143D01*
X0116963Y0088105D01*
X0117084Y0088063D01*
X0117203Y0088017D01*
X0117321Y0087968D01*
X0117438Y0087915D01*
X0117553Y0087859D01*
X0117666Y0087799D01*
X0117777Y0087736D01*
X0117886Y0087669D01*
X0117993Y0087599D01*
X0118098Y0087525D01*
X0118200Y0087449D01*
X0118300Y0087369D01*
X0118398Y0087286D01*
X0118493Y0087200D01*
X0118585Y0087111D01*
X0118674Y0087020D01*
X0118761Y0086926D01*
X0118844Y0086829D01*
X0118925Y0086729D01*
X0119002Y0086628D01*
X0119077Y0086523D01*
X0119148Y0086417D01*
X0119215Y0086308D01*
X0119280Y0086198D01*
X0119340Y0086085D01*
X0119398Y0085971D01*
X0119451Y0085855D01*
X0119501Y0085737D01*
X0119548Y0085618D01*
X0119591Y0085497D01*
X0119630Y0085375D01*
X0119665Y0085252D01*
X0119696Y0085128D01*
X0119724Y0085003D01*
X0119747Y0084877D01*
X0119767Y0084751D01*
X0119783Y0084624D01*
X0119795Y0084497D01*
X0119803Y0084369D01*
X0119807Y0084241D01*
X0119807Y0084113D01*
X0119803Y0083985D01*
X0119795Y0083857D01*
X0119783Y0083730D01*
X0119767Y0083603D01*
X0119747Y0083477D01*
X0119724Y0083351D01*
X0119696Y0083226D01*
X0119665Y0083102D01*
X0119630Y0082979D01*
X0119591Y0082857D01*
X0119548Y0082736D01*
X0119501Y0082617D01*
X0119451Y0082499D01*
X0119398Y0082383D01*
X0119340Y0082269D01*
X0119280Y0082156D01*
X0119215Y0082046D01*
X0119148Y0081937D01*
X0119077Y0081831D01*
X0119002Y0081726D01*
X0118925Y0081625D01*
X0118844Y0081525D01*
X0118761Y0081428D01*
X0118674Y0081334D01*
X0118585Y0081243D01*
X0118493Y0081154D01*
X0118398Y0081068D01*
X0118300Y0080985D01*
X0118200Y0080905D01*
X0118098Y0080829D01*
X0117993Y0080755D01*
X0117886Y0080685D01*
X0117777Y0080618D01*
X0117666Y0080555D01*
X0117553Y0080495D01*
X0117438Y0080439D01*
X0117321Y0080386D01*
X0117203Y0080337D01*
X0117084Y0080291D01*
X0116963Y0080249D01*
X0116840Y0080211D01*
X0116717Y0080177D01*
X0116593Y0080147D01*
X0116468Y0080120D01*
X0116342Y0080097D01*
X0116215Y0080079D01*
X0116088Y0080064D01*
X0115961Y0080053D01*
X0115833Y0080046D01*
X0115705Y0080043D01*
X0115577Y0080044D01*
X0115449Y0080049D01*
X0115322Y0080058D01*
X0115194Y0080071D01*
X0115067Y0080088D01*
X0114941Y0080108D01*
X0114816Y0080133D01*
X0114691Y0080161D01*
X0114567Y0080194D01*
X0114444Y0080230D01*
X0114323Y0080270D01*
X0114202Y0080313D01*
X0114084Y0080361D01*
X0113966Y0080412D01*
X0113851Y0080466D01*
X0113737Y0080525D01*
X0113624Y0080586D01*
X0113514Y0080651D01*
X0113406Y0080720D01*
X0113300Y0080792D01*
X0113197Y0080867D01*
X0113095Y0080945D01*
X0112997Y0081026D01*
X0112900Y0081111D01*
X0112807Y0081198D01*
X0112716Y0081288D01*
X0112628Y0081381D01*
X0112543Y0081476D01*
X0112461Y0081575D01*
X0112382Y0081675D01*
X0112306Y0081778D01*
X0112233Y0081884D01*
X0112164Y0081991D01*
X0112098Y0082101D01*
X0112036Y0082212D01*
X0111977Y0082326D01*
X0111921Y0082441D01*
X0111869Y0082558D01*
X0111821Y0082677D01*
X0111776Y0082797D01*
X0111735Y0082918D01*
X0111698Y0083040D01*
X0111665Y0083164D01*
X0111636Y0083288D01*
X0111610Y0083414D01*
X0111588Y0083540D01*
X0111571Y0083666D01*
X0111557Y0083794D01*
X0111547Y0083921D01*
X0111541Y0084049D01*
X0111539Y0084177D01*
X0111539Y0017248D02*
X0111541Y0017376D01*
X0111547Y0017504D01*
X0111557Y0017631D01*
X0111571Y0017759D01*
X0111588Y0017885D01*
X0111610Y0018011D01*
X0111636Y0018137D01*
X0111665Y0018261D01*
X0111698Y0018385D01*
X0111735Y0018507D01*
X0111776Y0018628D01*
X0111821Y0018748D01*
X0111869Y0018867D01*
X0111921Y0018984D01*
X0111977Y0019099D01*
X0112036Y0019213D01*
X0112098Y0019324D01*
X0112164Y0019434D01*
X0112233Y0019541D01*
X0112306Y0019647D01*
X0112382Y0019750D01*
X0112461Y0019850D01*
X0112543Y0019949D01*
X0112628Y0020044D01*
X0112716Y0020137D01*
X0112807Y0020227D01*
X0112900Y0020314D01*
X0112997Y0020399D01*
X0113095Y0020480D01*
X0113197Y0020558D01*
X0113300Y0020633D01*
X0113406Y0020705D01*
X0113514Y0020774D01*
X0113624Y0020839D01*
X0113737Y0020900D01*
X0113851Y0020959D01*
X0113966Y0021013D01*
X0114084Y0021064D01*
X0114202Y0021112D01*
X0114323Y0021155D01*
X0114444Y0021195D01*
X0114567Y0021231D01*
X0114691Y0021264D01*
X0114816Y0021292D01*
X0114941Y0021317D01*
X0115067Y0021337D01*
X0115194Y0021354D01*
X0115322Y0021367D01*
X0115449Y0021376D01*
X0115577Y0021381D01*
X0115705Y0021382D01*
X0115833Y0021379D01*
X0115961Y0021372D01*
X0116088Y0021361D01*
X0116215Y0021346D01*
X0116342Y0021328D01*
X0116468Y0021305D01*
X0116593Y0021278D01*
X0116717Y0021248D01*
X0116840Y0021214D01*
X0116963Y0021176D01*
X0117084Y0021134D01*
X0117203Y0021088D01*
X0117321Y0021039D01*
X0117438Y0020986D01*
X0117553Y0020930D01*
X0117666Y0020870D01*
X0117777Y0020807D01*
X0117886Y0020740D01*
X0117993Y0020670D01*
X0118098Y0020596D01*
X0118200Y0020520D01*
X0118300Y0020440D01*
X0118398Y0020357D01*
X0118493Y0020271D01*
X0118585Y0020182D01*
X0118674Y0020091D01*
X0118761Y0019997D01*
X0118844Y0019900D01*
X0118925Y0019800D01*
X0119002Y0019699D01*
X0119077Y0019594D01*
X0119148Y0019488D01*
X0119215Y0019379D01*
X0119280Y0019269D01*
X0119340Y0019156D01*
X0119398Y0019042D01*
X0119451Y0018926D01*
X0119501Y0018808D01*
X0119548Y0018689D01*
X0119591Y0018568D01*
X0119630Y0018446D01*
X0119665Y0018323D01*
X0119696Y0018199D01*
X0119724Y0018074D01*
X0119747Y0017948D01*
X0119767Y0017822D01*
X0119783Y0017695D01*
X0119795Y0017568D01*
X0119803Y0017440D01*
X0119807Y0017312D01*
X0119807Y0017184D01*
X0119803Y0017056D01*
X0119795Y0016928D01*
X0119783Y0016801D01*
X0119767Y0016674D01*
X0119747Y0016548D01*
X0119724Y0016422D01*
X0119696Y0016297D01*
X0119665Y0016173D01*
X0119630Y0016050D01*
X0119591Y0015928D01*
X0119548Y0015807D01*
X0119501Y0015688D01*
X0119451Y0015570D01*
X0119398Y0015454D01*
X0119340Y0015340D01*
X0119280Y0015227D01*
X0119215Y0015117D01*
X0119148Y0015008D01*
X0119077Y0014902D01*
X0119002Y0014797D01*
X0118925Y0014696D01*
X0118844Y0014596D01*
X0118761Y0014499D01*
X0118674Y0014405D01*
X0118585Y0014314D01*
X0118493Y0014225D01*
X0118398Y0014139D01*
X0118300Y0014056D01*
X0118200Y0013976D01*
X0118098Y0013900D01*
X0117993Y0013826D01*
X0117886Y0013756D01*
X0117777Y0013689D01*
X0117666Y0013626D01*
X0117553Y0013566D01*
X0117438Y0013510D01*
X0117321Y0013457D01*
X0117203Y0013408D01*
X0117084Y0013362D01*
X0116963Y0013320D01*
X0116840Y0013282D01*
X0116717Y0013248D01*
X0116593Y0013218D01*
X0116468Y0013191D01*
X0116342Y0013168D01*
X0116215Y0013150D01*
X0116088Y0013135D01*
X0115961Y0013124D01*
X0115833Y0013117D01*
X0115705Y0013114D01*
X0115577Y0013115D01*
X0115449Y0013120D01*
X0115322Y0013129D01*
X0115194Y0013142D01*
X0115067Y0013159D01*
X0114941Y0013179D01*
X0114816Y0013204D01*
X0114691Y0013232D01*
X0114567Y0013265D01*
X0114444Y0013301D01*
X0114323Y0013341D01*
X0114202Y0013384D01*
X0114084Y0013432D01*
X0113966Y0013483D01*
X0113851Y0013537D01*
X0113737Y0013596D01*
X0113624Y0013657D01*
X0113514Y0013722D01*
X0113406Y0013791D01*
X0113300Y0013863D01*
X0113197Y0013938D01*
X0113095Y0014016D01*
X0112997Y0014097D01*
X0112900Y0014182D01*
X0112807Y0014269D01*
X0112716Y0014359D01*
X0112628Y0014452D01*
X0112543Y0014547D01*
X0112461Y0014646D01*
X0112382Y0014746D01*
X0112306Y0014849D01*
X0112233Y0014955D01*
X0112164Y0015062D01*
X0112098Y0015172D01*
X0112036Y0015283D01*
X0111977Y0015397D01*
X0111921Y0015512D01*
X0111869Y0015629D01*
X0111821Y0015748D01*
X0111776Y0015868D01*
X0111735Y0015989D01*
X0111698Y0016111D01*
X0111665Y0016235D01*
X0111636Y0016359D01*
X0111610Y0016485D01*
X0111588Y0016611D01*
X0111571Y0016737D01*
X0111557Y0016865D01*
X0111547Y0016992D01*
X0111541Y0017120D01*
X0111539Y0017248D01*
D12*
X0115673Y0017248D03*
X0115673Y0084177D03*
X0115673Y0115673D03*
X0115673Y0182602D03*
X0017248Y0182602D03*
X0017248Y0115673D03*
X0017248Y0084177D03*
X0017248Y0017248D03*
D13*
X0039768Y0082209D03*
X0049768Y0082209D03*
X0059768Y0082209D03*
X0069768Y0082209D03*
X0079768Y0082209D03*
X0071500Y0113311D03*
X0061500Y0113311D03*
X0051500Y0113311D03*
X0041500Y0113311D03*
X0031500Y0113311D03*
X0046146Y0129138D03*
X0046146Y0139138D03*
X0046146Y0149138D03*
X0046146Y0159138D03*
X0046146Y0169138D03*
X0041500Y0184965D03*
X0051500Y0184965D03*
X0061500Y0184965D03*
X0071500Y0184965D03*
X0031500Y0184965D03*
X0129925Y0184965D03*
X0139925Y0184965D03*
X0149925Y0184965D03*
X0159925Y0184965D03*
X0169925Y0184965D03*
X0144571Y0169138D03*
X0144571Y0159138D03*
X0144571Y0149138D03*
X0144571Y0139138D03*
X0144571Y0129138D03*
X0140004Y0113311D03*
X0130004Y0113311D03*
X0150004Y0113311D03*
X0160004Y0113311D03*
X0159925Y0086539D03*
X0149925Y0086539D03*
X0139925Y0086539D03*
X0129925Y0086539D03*
X0144571Y0070713D03*
X0144571Y0060713D03*
X0144571Y0050713D03*
X0144571Y0040713D03*
X0144571Y0030713D03*
X0140004Y0014886D03*
X0130004Y0014886D03*
X0150004Y0014886D03*
X0160004Y0014886D03*
X0169925Y0086539D03*
D14*
X0171776Y0065280D03*
X0165083Y0065280D03*
X0163508Y0036539D03*
X0170201Y0036539D03*
X0075713Y0022760D03*
X0069020Y0022760D03*
X0035555Y0022366D03*
X0028862Y0022366D03*
X0030831Y0073154D03*
X0037524Y0073154D03*
X0163508Y0134965D03*
X0170201Y0134965D03*
X0171776Y0163705D03*
X0165083Y0163705D03*
D15*
X0184807Y0159138D03*
X0184807Y0169138D03*
X0184807Y0149138D03*
X0184807Y0139138D03*
X0184807Y0129138D03*
X0184807Y0070713D03*
X0184807Y0060713D03*
X0184807Y0050713D03*
X0184807Y0040713D03*
X0184807Y0030713D03*
X0086382Y0030713D03*
X0086382Y0040713D03*
X0086382Y0050713D03*
X0086382Y0060713D03*
X0086382Y0070713D03*
D16*
X0032209Y0035949D03*
X0032209Y0029256D03*
X0151500Y0043035D03*
X0151500Y0049728D03*
X0153469Y0055240D03*
X0153469Y0061933D03*
X0151500Y0141461D03*
X0151500Y0148154D03*
X0153469Y0153665D03*
X0153469Y0160358D03*
D17*
X0024138Y0047169D03*
X0024138Y0044610D03*
X0024138Y0042051D03*
X0024138Y0039492D03*
X0024138Y0036933D03*
D18*
X0023547Y0032209D03*
X0023547Y0051894D03*
D19*
X0014098Y0056224D03*
X0014098Y0027878D03*
D20*
X0014098Y0027878D03*
X0014098Y0056224D03*
D21*
X0023941Y0052248D03*
X0023941Y0031815D03*
D22*
X0039394Y0048744D03*
X0042937Y0054256D03*
X0046283Y0048744D03*
X0049827Y0054256D03*
X0081913Y0022760D03*
X0088803Y0022760D03*
D23*
X0047169Y0021185D03*
X0032209Y0014886D03*
D24*
X0038705Y0035161D03*
X0038705Y0042642D03*
X0049728Y0042642D03*
X0049728Y0038902D03*
X0049728Y0035161D03*
D25*
X0059374Y0038409D03*
X0059374Y0031520D03*
X0079453Y0046480D03*
X0079453Y0053370D03*
D26*
X0076106Y0039886D03*
X0068626Y0039886D03*
X0068626Y0029256D03*
X0072366Y0029256D03*
X0076106Y0029256D03*
D27*
X0062720Y0016461D03*
X0055240Y0016461D03*
X0058980Y0025122D03*
D28*
X0015673Y0068429D03*
D29*
X0023941Y0063429D03*
X0023941Y0073429D03*
D30*
X0138508Y0026697D03*
X0138508Y0125122D03*
M02*
